<svg width="80" height="80" viewBox="0 0 80 80" fill="none" xmlns="http://www.w3.org/2000/svg">
  <!-- Stack layers (bottom to top) -->
  <rect x="20" y="60" width="40" height="8" rx="2" fill="#1E3A8A"/>
  <rect x="22" y="54" width="36" height="6" rx="1.5" fill="#2563EB"/>
  <rect x="24" y="49" width="32" height="5" rx="1" fill="#3B82F6"/>
  <rect x="26" y="45" width="28" height="4" rx="1" fill="#60A5FA"/>
  
  <!-- Rocket body -->
  <path d="M40 8C42.7614 8 45 10.2386 45 13V35C45 37.7614 42.7614 40 40 40C37.2386 40 35 37.7614 35 35V13C35 10.2386 37.2386 8 40 8Z" fill="#3B82F6"/>
  
  <!-- Rocket tip -->
  <path d="M40 8L46 13H34L40 8Z" fill="#1E40AF"/>
  
  <!-- Rocket fins -->
  <path d="M30 28L35 25V35L30 32V28Z" fill="#1D4ED8"/>
  <path d="M50 28L45 25V35L50 32V28Z" fill="#1D4ED8"/>
  
  <!-- Rocket window -->
  <circle cx="40" cy="18" r="4" fill="#BFDBFE"/>
  <circle cx="40" cy="18" r="2" fill="#EFF6FF"/>
  
  <!-- Rocket engine -->
  <rect x="37" y="40" width="6" height="3" fill="#374151"/>
  
  <!-- Flames -->
  <path d="M34 43L37 50L40 46L43 50L46 43H34Z" fill="#EF4444"/>
  <path d="M35 43L37 48L40 45L43 48L45 43H35Z" fill="#F59E0B"/>
  
  <!-- Connection lines from rocket to stack -->
  <path d="M40 43L40 45" stroke="#60A5FA" stroke-width="2" stroke-dasharray="2,2"/>
  <path d="M38 43L35 45" stroke="#60A5FA" stroke-width="1" stroke-dasharray="1,1"/>
  <path d="M42 43L45 45" stroke="#60A5FA" stroke-width="1" stroke-dasharray="1,1"/>
  
  <!-- Stack labels/indicators -->
  <circle cx="18" cy="64" r="2" fill="#FBBF24"/>
  <circle cx="62" cy="58" r="2" fill="#FBBF24"/>
  <circle cx="66" cy="52" r="1.5" fill="#FBBF24"/>
  <circle cx="14" cy="49" r="1.5" fill="#FBBF24"/>
  
  <!-- Sparkles around rocket -->
  <path d="M25 12L26 14L28 13L26 15L25 12Z" fill="#F3F4F6"/>
  <path d="M55 20L56 22L58 21L56 23L55 20Z" fill="#F3F4F6"/>
  <path d="M28 35L29 37L31 36L29 38L28 35Z" fill="#F3F4F6"/>
  <path d="M52 35L53 37L55 36L53 38L52 35Z" fill="#F3F4F6"/>
</svg>
